<?xml version="1.0" encoding="utf-8"?>
<!-- Generator: Adobe Illustrator 23.1.1, SVG Export Plug-In . SVG Version: 6.00 Build 0)  -->
<svg version="1.1" id="レイヤー_1" xmlns="http://www.w3.org/2000/svg" xmlns:xlink="http://www.w3.org/1999/xlink" x="0px"
	 y="0px" viewBox="0 0 360 94.3" style="enable-background:new 0 0 360 94.3;" xml:space="preserve">
<style type="text/css">
	.st0{fill-rule:evenodd;clip-rule:evenodd;fill:#E60012;}
	.st1{fill-rule:evenodd;clip-rule:evenodd;fill:#1D2088;}
	.st2{fill:#231815;}
</style>
<g>
	<path class="st0" d="M20.8,78.4c0.5,0,1.1,0,1.6,0c0.1,1.4-0.1,3.3,0.1,4.6c0.1,0.1,0.4,0,0.6,0c0.3-1.3,0-3.2,0.1-4.7
		c0.5-0.1,1.1,0,1.6,0c0.1,3.8,0.1,8.2,0,12.2c-0.4,0.1-1.1,0.1-1.5,0c-0.2-1.9,0-4.1-0.1-6c-0.2-0.1-0.5,0-0.7,0c-0.1,2,0,4-0.1,6
		c-0.4,0.1-1.1,0.1-1.6,0c-0.1-3.9-0.1-8.3-0.1-12.1C20.7,78.4,20.7,78.4,20.8,78.4"/>
	<path class="st0" d="M39.8,80.1c0.6-0.1,1.4,0.1,1.8,0.5c0.6,0.8,0.4,3.4,0.4,4.6c0,0.8,0,1.7,0,2.5c0,1.2,0,2.2-0.5,2.7
		c-0.6,0.6-2.3,0.7-2.9-0.1c-0.3-0.4-0.4-1.3-0.3-2.4c0.1-1.7,0.1-3.6,0.1-5.3C38.2,81.3,38.3,80.3,39.8,80.1 M39.8,84.6
		c0,1.2,0,2.5,0,3.4c0,0.4-0.1,1.5,0.3,1.4c0.4,0,0.3-1.2,0.3-1.9c0-1.4,0-2.9,0-4.3c0-0.7,0.2-2.2-0.5-1.9
		C39.7,82.3,39.8,83.5,39.8,84.6"/>
	<path class="st0" d="M44.1,80.1c0.6,0,1.3,0.2,1.6,0.7c0.5,0.8,0.2,3.5,0.2,4.7c0,1.3,0.2,3.9-0.3,4.7c-0.6,0.9-2.4,1-3.1,0.1
		c-0.3-0.5-0.3-1.5-0.3-2.4c0-1.7-0.1-3.6,0-5.4C42.4,81.1,42.6,80.2,44.1,80.1 M43.8,82.3c-0.1,1.9,0,3.5,0,5.4
		c0,0.7-0.1,1.9,0.3,1.8c0.4,0,0.3-1.6,0.3-2.1c0-1.5,0.1-3.9,0-5.1c0-0.5,0-1-0.3-0.9C43.8,81.5,43.9,81.9,43.8,82.3"/>
	<path class="st0" d="M54.4,85.6c-0.6,0.1-1.5,0-2,0.1c-0.2,0.5-0.1,1.2-0.1,2c0,0.5-0.2,1.8,0.2,1.8c0.5,0.1,0.4-1,0.4-1.4
		c0-0.7,0-1.2,0.1-1.7c0.5,0,1,0,1.4,0c0,1.3,0.3,3.1-0.3,3.8c-0.7,0.8-2.6,0.7-3.1-0.2c-0.5-1-0.2-3-0.2-4.7c0-1.3-0.1-2.5,0-3.6
		c0.1-1,0.6-1.6,1.6-1.7C55.3,79.7,54.3,83.3,54.4,85.6 M52.9,82.7c0-0.6,0.1-1.6-0.5-1.3c-0.2,0.8,0,2-0.1,2.8c0.1,0,0.4,0.1,0.5,0
		C53,84,52.9,83.4,52.9,82.7"/>
	<path class="st0" d="M29,90.7c-0.5,0-1.4,0.2-1.5-0.2c-0.8,0.6-1.9,0.3-2.1-0.8c-0.1-0.8-0.1-2.7,0-3.8c0.1-1.3,1.2-1.8,2.1-2.3
		c0.1-0.3,0-0.7,0-1.1c0-0.4,0.1-1-0.2-1c-0.5-0.1-0.2,1.4-0.3,1.8c-0.3,0.1-1.1,0.1-1.5,0c-0.2-1.7,0-3,1.5-3.2
		c1.2-0.1,2,0.4,2.1,1.4c0.1,1.4,0,2.9,0,4.6C29.1,87.8,29.2,89.4,29,90.7 M27,87.9c0,0.5-0.2,1.5,0.3,1.5c0.3,0,0.3-0.5,0.3-0.9
		v-2.4c0-0.4,0.1-0.8-0.1-1.1C26.7,85.4,27,86.9,27,87.9"/>
	<path class="st0" d="M31.3,90.6c-0.1,0.5,0,3.1-0.1,3.7c-0.4,0.1-1.1,0.1-1.5,0c-0.1-4-0.1-10,0-14.1c0.5,0,1.4-0.2,1.6,0.2
		c0.7-0.5,1.9-0.2,2.1,0.7c0.1,0.6,0,1.3,0,2.1c0,1.9,0.1,4.5,0,6.1c0,0.4-0.2,1-0.3,1.1C32.8,90.9,31.8,90.9,31.3,90.6 M31.3,83.4
		v4.2c0,0.6-0.1,1.9,0.3,1.8c0.4-0.1,0.3-1.4,0.3-1.8v-4.2c0-0.7,0.2-1.6-0.2-1.9C31.1,81.4,31.3,82.8,31.3,83.4"/>
	<path class="st0" d="M35.6,90.6c-0.1,0.5,0,3.1-0.1,3.7c-0.4,0-1.1,0.1-1.5,0c-0.1-4-0.1-10.1,0.1-14.1c0.5,0,1.4-0.2,1.6,0.2
		c0.8-0.5,1.9-0.2,2,0.8c0.1,0.8,0,1.6,0,2.5c0,1.4,0,3.4,0,4.8c0,0.9,0,1.7-0.4,2.1C37,90.9,36.1,90.9,35.6,90.6 M35.6,83.9
		c0,1.3,0,2.6,0,3.9c0,0.4-0.2,1.7,0.3,1.7c0.4-0.1,0.2-1.9,0.2-2.4c0-1,0-2.2,0-3c0-0.6,0.3-2.9-0.4-2.5
		C35.5,82,35.6,83.1,35.6,83.9"/>
	<path class="st0" d="M48.2,80.4c0.5-0.3,1.4-0.4,1.8,0.1c0.4,0.6,0.2,2,0.2,3.1c0,2.2,0,5.1-0.1,7.1c-0.5,0-1,0-1.4,0
		c-0.1-2.5,0-5.7,0-8.3c0-0.3,0.1-0.9-0.3-0.9c-0.5,0-0.3,1.6-0.3,2.1c0,2.4,0,5-0.1,7.1c-0.5,0-0.9,0-1.4,0c-0.1-3.6,0-7,0-10.5
		C47.1,80.2,48.1,79.9,48.2,80.4"/>
	<path class="st1" d="M53.2,0L53.2,0c0.7,4,1.4,8,2,12c-5.6,1.5-11.1,3.1-16.7,4.7c0-1.6,0-3,0-4.7c0-0.5-0.1-1.2,0-1.6
		c0.1-0.2,0.6-0.5,0.9-0.7c3.4-2.3,6.7-4.7,10.1-7C50.7,1.8,51.9,0.8,53.2,0"/>
	<path class="st1" d="M31.9,7.3c-2.8,5.1-5.6,10.1-8.5,15.1c-1.5-1.5-3-3-4.5-4.5C20,12,21,6.1,22.1,0.2C25.4,2.5,28.6,4.9,31.9,7.3
		"/>
	<path class="st1" d="M32.8,7.9c-2.8,5.1-5.7,10.2-8.5,15.3c-0.3-0.1-0.5-0.4-0.6-0.6c2.9-5,5.6-10.1,8.5-15.1
		C32.4,7.6,32.6,7.7,32.8,7.9"/>
	<path class="st1" d="M33.4,8.3c0.2,0.4-0.2,0.7-0.3,1c-2.3,4.2-4.8,8.5-7.1,12.7c-0.3,0.5-0.5,1-0.8,1.5c-0.1,0.1-0.1,0.4-0.3,0.4
		c-0.3-0.3,0.1-0.7,0.2-1c1.2-2.2,2.5-4.5,3.8-6.8C30.4,13.5,31.9,10.8,33.4,8.3L33.4,8.3z"/>
	<path class="st1" d="M34.3,9C34.3,9,34.4,9.1,34.3,9c-2.1,4-4.3,7.8-6.5,11.7c-0.7,1.3-1.4,2.6-2.2,3.8C28.4,19.3,31.4,14.2,34.3,9
		"/>
	<path class="st1" d="M35,9.5L35,9.5c0.3,0.4-0.1,0.7-0.2,1c-2,3.6-4,7.4-6.2,11c-0.7,1.2-1.3,2.3-2,3.5c-0.1,0.1-0.1,0.4-0.3,0.4
		c-0.2-0.4,0.2-0.7,0.4-1c1.3-2.3,2.5-4.6,3.8-6.9C32,14.8,33.5,12.1,35,9.5"/>
	<path class="st1" d="M36.4,10.5c-2.9,5.3-5.9,10.6-8.9,15.9c-0.2,0-0.5-0.3-0.6-0.6c2.6-4.8,5.5-9.8,8.2-14.7
		c0.2-0.3,0.4-0.9,0.5-1C35.9,10,36.2,10.3,36.4,10.5"/>
	<path class="st1" d="M36.7,10.8C36.7,10.8,36.7,10.8,36.7,10.8c0.1,8.2,0.1,16.6,0,24.7c-0.2,0-0.4-0.3-0.6-0.4
		c-2.8-2.7-5.6-5.6-8.3-8.3C30.7,21.4,33.7,16.1,36.7,10.8"/>
	<path class="st1" d="M55.2,12.3c0.1,0.2,0.1,0.5,0.2,0.8c-5.6,1.6-11.2,3.2-16.9,4.7c-0.1-0.2-0.1-0.6,0-0.9
		C44,15.4,49.6,13.9,55.2,12.3"/>
	<path class="st1" d="M55.4,13.7h0.1c0.1,0.4-0.5,0.5-0.8,0.5c-5.3,1.5-10.9,3.1-16.2,4.5c0-0.5,0.6-0.5,0.9-0.5
		c3.8-1,7.8-2.2,11.7-3.3C52.5,14.6,54,14.1,55.4,13.7"/>
	<path class="st1" d="M55.6,14.9c0.1,0.1-0.2,0.1-0.4,0.2c-5.5,1.6-11.2,3.2-16.7,4.7c0.6-0.3,1.4-0.4,2.1-0.6
		C45.5,17.7,50.6,16.2,55.6,14.9"/>
	<path class="st1" d="M55.8,15.8c0,0.5-0.6,0.4-0.9,0.5c-3.9,1.1-8.1,2.4-12.1,3.4c-1.1,0.3-2.2,0.6-3.3,0.9
		c-0.3,0.1-0.7,0.3-1.1,0.2c0.1-0.3,0.6-0.4,0.9-0.5c5.3-1.5,10.9-3,16.2-4.5C55.6,15.8,55.7,15.8,55.8,15.8"/>
	<path class="st1" d="M55.9,16.7c0.2,0.1,0.2,0.5,0.2,0.8c-5.9,1.6-11.7,3.3-17.6,4.9c-0.1-0.2-0.1-0.6,0-0.8
		C44.3,19.9,50.1,18.3,55.9,16.7"/>
	<path class="st1" d="M35.2,36.8c-4.4,0-8.2,0.1-12.5,0C21,31,19.4,25.1,17.8,19.2c0,0,0.1,0,0.1,0c5,5.1,10.3,10.2,15.2,15.4
		C33.8,35.3,34.6,35.9,35.2,36.8"/>
	<path class="st1" d="M22.3,36.8c-0.2,0.1-0.6,0-0.8,0c-1.7-5.8-3.3-11.6-4.9-17.4c0.2-0.1,0.4-0.2,0.7-0.2c0.2,0.1,0.3,0.7,0.4,1
		C19.2,25.6,20.9,31.6,22.3,36.8"/>
	<path class="st1" d="M15.7,19.4c0.3-0.1,0.4,0.6,0.5,1c1.1,4,2.3,8,3.4,12c0.4,1.5,0.9,2.9,1.2,4.4c-0.4,0-0.4-0.6-0.5-0.9
		c-1.5-5.4-3.1-10.9-4.6-16.3C15.6,19.5,15.7,19.4,15.7,19.4"/>
	<path class="st1" d="M14.8,19.6c1.7,5.6,3.3,11.4,4.8,17.2c-0.3-0.7-0.5-1.4-0.7-2.1c-1.2-4.3-2.3-8.6-3.6-12.9
		C15.2,21.1,15,20.4,14.8,19.6"/>
	<path class="st1" d="M13.7,19.8c0.3,0,0.3,0.6,0.4,1c1.5,5.2,3,10.4,4.4,15.6c0,0.1,0.2,0.4,0,0.5c-0.4,0-0.4-0.6-0.5-0.9
		c-1.5-5.2-3.1-10.7-4.5-16.1C13.7,19.8,13.7,19.8,13.7,19.8"/>
	<path class="st1" d="M12.9,19.9c0.3,0.3,0.3,0.8,0.4,1.2c0.6,2,1.2,4.3,1.8,6.4c0.2,0.8,0.5,1.7,0.6,2.6c0.3,0.5,0.4,1.1,0.5,1.6
		c0.5,1.7,0.9,3.4,1.4,5.1c-0.2,0.1-0.6,0.1-0.9,0c-1.6-5.6-3.2-11.1-4.7-16.8C12.4,20,12.7,20,12.9,19.9"/>
	<path class="st1" d="M67.7,32.2c-0.1,0.3-0.3,0.5-0.5,0.7c-5.1-2.8-10.1-5.7-15.2-8.6c0.2-0.2,0.4-0.4,0.6-0.6
		C57.7,26.6,62.7,29.4,67.7,32.2"/>
	<path class="st1" d="M66.8,33.5c-0.1,0.3-0.4,0-0.5-0.1c-4.3-2.4-8.8-4.9-13.1-7.3c-0.5-0.3-0.9-0.6-1.4-0.9
		c-0.1-0.1-0.4-0.1-0.3-0.3c0.1,0,0.1-0.2,0.2-0.1c0.6,0.2,1.3,0.7,2,1.1c4.3,2.4,8.6,4.9,12.9,7.3C66.6,33.3,66.9,33.3,66.8,33.5"
		/>
	<path class="st1" d="M66.2,34.4c-5.2-2.9-10.3-5.8-15.5-8.7c0,0,0.1-0.1,0.1,0c3.9,2.2,7.8,4.3,11.6,6.5
		C63.7,32.9,65,33.6,66.2,34.4"/>
	<path class="st1" d="M49.9,26.5c0.1,0,0.1-0.1,0.1-0.1c4.6,2.5,9.2,5.1,13.8,7.7c0.4,0.2,1.3,0.6,1.7,1c0,0,0.2,0.1,0.1,0.2
		c-0.1,0.3-0.8-0.3-1-0.4c-3.6-2.1-7.3-4.1-10.9-6.1c-1.2-0.7-2.3-1.3-3.5-2C50.2,26.7,49.9,26.7,49.9,26.5"/>
	<path class="st1" d="M49.4,27c2.7,1.4,5.4,3,7.9,4.4c2.7,1.5,5.3,2.9,7.9,4.4c-0.1,0.3-0.3,0.5-0.5,0.6c-5.2-3-10.6-5.9-15.8-8.9
		C48.9,27.4,49.2,27.2,49.4,27"/>
	<path class="st1" d="M48.5,27.9c0.5,0.2,1.4,0.7,2.1,1.1c3.3,1.9,6.7,3.7,10,5.6c1,0.6,2,1.1,3,1.7c0.3,0.2,0.7,0.3,0.9,0.6
		c-8.2,0-16.6,0-24.7-0.1C42.6,33.8,45.5,30.8,48.5,27.9"/>
	<path class="st1" d="M52.3,38.6c1.7,5.8,3.3,11.7,4.9,17.6c-0.2,0.1-0.4-0.2-0.6-0.4c-2.8-2.7-5.4-5.6-8.2-8.3
		c-2.6-2.6-5.1-5.1-7.7-7.7c-0.3-0.4-0.7-0.7-1-1.1C44,38.6,48.1,38.6,52.3,38.6"/>
	<path class="st1" d="M52.8,38.6c0.2,0,0.5,0,0.7,0c0.9,2.8,1.7,5.8,2.5,8.7c0.8,2.9,1.7,5.8,2.4,8.7c-0.2,0.1-0.5,0.1-0.7,0.2
		c-1.7-5.8-3.3-11.7-4.9-17.5C52.7,38.6,52.7,38.6,52.8,38.6"/>
	<path class="st1" d="M59.2,55.9c-0.4-0.1-0.4-0.6-0.5-1c-1.5-5.3-3.1-10.9-4.6-16.3c0.3-0.5,0.5,0.7,0.6,0.9
		c1.4,5.2,2.8,10.2,4.3,15.3C59.1,55.2,59.3,55.6,59.2,55.9"/>
	<path class="st1" d="M56.4,38.6c0.4,0.1,0.4,0.6,0.5,0.9c1.4,5,2.8,10.1,4.2,15.1c0.1,0.3,0.2,0.7,0.2,1c-0.4,0-0.4-0.6-0.5-0.9
		c-1.5-5.2-3-10.7-4.5-16C56.3,38.6,56.3,38.5,56.4,38.6"/>
	<path class="st1" d="M58.1,38.6c1.6,5.6,3.1,11.1,4.7,16.7c-0.2,0.1-0.5,0.1-0.8,0.1c-1.6-5.6-3.2-11.3-4.7-16.9H58.1z"/>
	<path class="st1" d="M58.5,38.6h4.6c0.5,0,1.1-0.1,1.5,0c0.2,0.1,0.5,0.6,0.7,0.9c2.4,3.4,4.7,6.8,7.1,10.2
		c0.9,1.2,1.8,2.4,2.5,3.7c-4,0.6-7.9,1.3-11.9,2c-1.5-5.5-3.1-11-4.6-16.6C58.4,38.7,58.5,38.5,58.5,38.6"/>
	<path class="st1" d="M35.3,38.7c-1.4,1.6-2.9,3-4.4,4.5c-1.5,1.5-2.9,3-4.4,4.4c-2.6-1.4-5.3-2.9-8-4.5c-2.5-1.4-5-2.7-7.5-4.2
		c-0.1,0-0.3-0.2-0.3-0.3C19.1,38.6,27,38.6,35.3,38.7"/>
	<path class="st1" d="M55.4,38.6h0.1c1.5,5.7,3.2,11.4,4.7,17.2c-0.5-1.4-0.8-2.8-1.2-4.2c-1.2-4.2-2.4-8.6-3.5-12.8
		C55.3,38.7,55.4,38.6,55.4,38.6"/>
	<path class="st1" d="M10.3,39c2.6,1.3,5.4,3,8,4.4c2.7,1.5,5.3,2.9,7.9,4.4c0,0.2-0.3,0.5-0.6,0.6c-5.2-3-10.5-5.9-15.7-8.9
		C10,39.3,10.1,39.1,10.3,39"/>
	<path class="st1" d="M36.5,39.9L36.5,39.9c0.1,4.2,0.1,8.5,0.2,12.5c-5.8,1.7-11.6,3.4-17.5,5c0-0.2,0.2-0.4,0.4-0.6
		c2.6-2.7,5.4-5.4,8.1-8.1c1.4-1.4,2.9-2.9,4.3-4.4C33.6,42.9,35,41.4,36.5,39.9"/>
	<path class="st1" d="M9.5,40.2C9.5,40.1,9.5,40.2,9.5,40.2c4.9,2.8,9.9,5.4,14.8,8.3c0.2,0.1,0.9,0.4,0.8,0.6
		c-0.1,0.3-0.8-0.3-1-0.3c-3.6-2.1-7.3-4.1-10.9-6.1c-1.2-0.6-2.3-1.3-3.5-2c-0.1-0.1-0.4-0.1-0.4-0.4C9.4,40.2,9.4,40.2,9.5,40.2"
		/>
	<path class="st1" d="M8.8,41.1H9c3.8,2.2,7.7,4.4,11.6,6.5c1.3,0.7,2.6,1.4,3.8,2.2C19.1,46.9,13.9,44.1,8.8,41.1"/>
	<path class="st1" d="M23.7,50.5c-0.3,0.3-0.7-0.1-1-0.2c-2.2-1.3-4.6-2.6-6.9-3.8c-2.3-1.2-4.6-2.6-6.8-3.9
		c-0.3-0.2-0.7-0.3-0.9-0.6c0,0,0,0,0,0c0,0,0.1-0.1,0.1-0.1h0.1c2.5,1.5,5.2,2.8,7.7,4.3C18.6,47.6,21.2,48.9,23.7,50.5"/>
	<path class="st1" d="M7.1,43.5c4.8,2.6,9.5,5.3,14.2,7.9c0.3,0.2,0.6,0.3,0.9,0.6c-1.3,1.3-2.5,2.5-3.9,3.9
		c-0.2,0.2-0.4,0.5-0.6,0.5c-0.2,0-0.7-0.2-1.1-0.2c-5.4-0.9-11.2-2-16.5-2.8c0-0.2,0.2-0.5,0.4-0.6C2.6,49.7,4.9,46.6,7.1,43.5"/>
	<path class="st1" d="M48.2,49.7c-2.9,5.3-5.9,10.5-8.8,15.8c-0.3-0.1-0.5-0.3-0.7-0.5c2.7-4.8,5.5-9.9,8.3-14.8
		c0.2-0.3,0.4-0.8,0.6-1c0,0,0-0.1,0.1-0.1C47.8,49.1,48.1,49.5,48.2,49.7"/>
	<path class="st1" d="M48.7,50.1c0.2,0.4-0.2,0.7-0.3,1c-2.5,4.6-5.2,9.3-7.7,14c-0.2,0.3-0.3,0.7-0.6,0.9c-0.2-0.4,0.2-0.7,0.4-1
		C43.2,60.2,45.9,55,48.7,50.1L48.7,50.1z"/>
	<path class="st1" d="M49.5,51c0,0,0.1,0,0.1,0.1c-2.9,5.1-5.7,10.4-8.7,15.5C43.6,61.3,46.6,56.2,49.5,51"/>
	<path class="st1" d="M50.4,51.8c-0.3,0.7-0.7,1.3-1,2c-2.4,4.3-4.9,8.8-7.3,13.1c-0.1,0.1-0.1,0.4-0.3,0.4c-0.1-0.4,0.2-0.7,0.4-1
		c1.9-3.6,3.9-7,5.9-10.6c0.5-0.9,1.1-1.9,1.6-2.9c0.2-0.3,0.4-0.8,0.5-1C50.2,51.6,50.2,51.6,50.4,51.8"/>
	<path class="st1" d="M51.5,52.9C48.7,58,45.9,63,43,68c-0.2,0-0.5-0.3-0.7-0.5c2.8-5.1,5.7-10.2,8.5-15.3
		C51.1,52.5,51.3,52.7,51.5,52.9"/>
	<path class="st1" d="M36.7,52.9c0,0.3,0,0.6,0,0.8c-5.8,1.6-11.5,3.3-17.4,4.9c-0.1-0.2-0.1-0.5-0.1-0.7
		C25,56.2,30.8,54.5,36.7,52.9"/>
	<path class="st1" d="M53.1,75.3c-2.5-1.7-5-3.5-7.4-5.3c-0.8-0.6-1.7-1.1-2.4-1.8c2.8-5,5.6-10.1,8.4-15.1c1.1,1,2.2,2.1,3.4,3.3
		c0.3,0.3,1,0.9,1.1,1.1c0,0.2-0.1,0.7-0.2,1.1C55.1,64.1,54,69.9,53.1,75.3"/>
	<path class="st1" d="M36.7,54.4c-0.1,0.4-0.6,0.4-0.9,0.5c-5,1.4-10.2,3-15.3,4.4c-0.3,0.1-0.7,0.3-1,0.2c0-0.4,0.6-0.3,0.9-0.4
		c2.4-0.7,5-1.5,7.5-2.2c2.9-0.8,5.8-1.6,8.6-2.5C36.5,54.4,36.6,54.4,36.7,54.4"/>
	<path class="st1" d="M36.6,55.5c0.1,0.1-0.2,0.1-0.4,0.2c-5.4,1.6-11.1,3.1-16.6,4.7c0.7-0.3,1.4-0.4,2.1-0.6
		C26.6,58.4,31.7,56.9,36.6,55.5L36.6,55.5z"/>
	<path class="st1" d="M36.7,56.5c0,0.5-0.6,0.5-0.8,0.5c-5,1.4-10.1,2.9-15.1,4.3c-0.3,0.1-0.7,0.2-1,0.2c0.1-0.4,0.6-0.4,0.9-0.5
		c5.1-1.5,10.6-3.1,15.7-4.6C36.5,56.5,36.6,56.5,36.7,56.5"/>
	<path class="st1" d="M36.6,57.5c0.2,0.1,0.1,0.6,0.1,0.8C31.2,59.9,25.6,61.5,20,63c-0.1-0.2-0.1-0.5-0.1-0.7
		C25.4,60.6,31.1,59.1,36.6,57.5"/>
	<path class="st1" d="M36.6,58.6c0.1,0.2,0.1,1,0.1,1.5c0,1.1,0,1.9,0,3.1c0,0.5,0.1,1.2,0,1.6c0,0.2-0.6,0.5-0.9,0.7
		c-3.4,2.4-6.8,4.8-10.1,7.2c-0.9,0.7-1.8,1.3-2.7,2c-0.3,0.2-0.6,0.5-0.9,0.6c-0.6-4-1.4-7.9-2-11.9C25.6,61.8,31.1,60.2,36.6,58.6
		"/>
	<path class="st1" d="M75,22.1c-1.1,1.7-2.3,3.3-3.5,5c-1.2,1.7-2.3,3.3-3.6,4.9c-5-2.8-10-5.6-15-8.5c0.7-0.8,1.4-1.5,2.1-2.2
		c0.7-0.7,1.5-1.4,2.2-2.2c0,0,0.1-0.1,0.2-0.1c2.9,0.4,5.8,1,8.8,1.5C69.1,21.1,72.1,21.6,75,22.1"/>
	<path class="st1" d="M38.5,35.3c-0.1-4.1,0-8.3,0-12.5c5.7-1.7,11.6-3.3,17.4-4.9c0.5-0.1-0.1,0.4-0.2,0.5
		c-0.5,0.5-1.2,1.1-1.7,1.6c-2.2,2.2-4.4,4.4-6.6,6.6c-2.3,2.2-4.4,4.4-6.6,6.6C40,33.9,39.3,34.7,38.5,35.3"/>
	<path class="st1" d="M16.6,36.8c-2,0.1-4.2,0-6.2,0c-3.1-4.2-6-8.7-9.1-13C0.8,23.3,0.3,22.7,0,22c2.9-0.5,5.8-0.9,8.7-1.4
		c1-0.2,2-0.3,2.9-0.5C12,20,12,20.5,12.2,21C13.5,26.2,15.3,31.8,16.6,36.8"/>
	<path class="st1" d="M23,51.1c-0.2,0.2-0.4,0.5-0.6,0.6c-5.1-2.8-10.1-5.6-15.1-8.5c0.1-0.3,0.3-0.6,0.5-0.6
		C12.9,45.4,17.9,48.3,23,51.1"/>
	<path class="st1" d="M38.4,40c2.6,2.5,5.2,5.1,7.9,7.7c0.3,0.3,1,0.9,1.1,1.1c0,0.2-0.4,0.8-0.5,1c-2,3.6-4.1,7.3-6.1,10.9
		c-0.7,1.3-1.4,2.7-2.3,3.9C38.3,56.4,38.4,48.2,38.4,40"/>
	<polygon class="st2" points="95.7,12 95.7,20.7 104.9,20.7 104.9,12 106.4,12 106.4,31.9 104.9,31.9 104.9,22.3 95.7,22.3 
		95.7,31.9 94.2,31.9 94.2,12 	"/>
	<path class="st2" d="M151.8,12l6.1,19.9h-1.6l-1.9-6.2h-7l-1.9,6.2H144l6.2-19.9H151.8z M153.9,24.1l-3-10.2l-3.1,10.2H153.9z"/>
	<polygon class="st2" points="197,12 197,22.7 206,12 208,12 201,20.3 208.3,31.9 206.4,31.9 199.9,21.6 197,25.1 197,31.9 
		195.5,31.9 195.5,12 	"/>
	<path class="st2" d="M247,12v12.3c0,1.2,0.1,2.1,0.3,2.9c0.2,0.8,0.5,1.5,0.9,2c0.4,0.5,0.9,0.9,1.4,1.1c0.6,0.2,1.2,0.3,1.9,0.3
		c0.7,0,1.4-0.1,1.9-0.3c0.6-0.2,1-0.6,1.4-1.1c0.4-0.5,0.7-1.2,0.9-2c0.2-0.8,0.3-1.8,0.3-2.9V12h1.5v12.7c0,1-0.1,2-0.3,2.9
		c-0.2,0.9-0.6,1.7-1.1,2.4c-0.5,0.7-1.1,1.2-1.9,1.6c-0.8,0.4-1.7,0.6-2.7,0.6c-1.1,0-2-0.2-2.7-0.6c-0.8-0.4-1.4-0.9-1.9-1.6
		c-0.5-0.7-0.8-1.5-1.1-2.4c-0.2-0.9-0.3-1.9-0.3-2.9V12H247z"/>
	<path class="st2" d="M303.3,12c0.7,0,1.3,0.1,1.9,0.2c0.6,0.2,1.1,0.4,1.6,0.8c0.5,0.4,0.8,0.9,1.1,1.5c0.3,0.6,0.4,1.4,0.4,2.3
		c0,0.5-0.1,1-0.2,1.5c-0.1,0.5-0.3,0.9-0.6,1.3c-0.2,0.4-0.5,0.7-0.9,1c-0.3,0.3-0.7,0.5-1.1,0.6v0.1c1,0.2,1.8,0.7,2.4,1.6
		c0.6,0.9,0.9,2,0.9,3.3c0,0.3,0,0.7-0.1,1.1c0,0.4-0.1,0.8-0.3,1.2c-0.1,0.4-0.3,0.8-0.6,1.2c-0.2,0.4-0.6,0.8-1,1.1
		c-0.4,0.3-0.9,0.6-1.5,0.7c-0.6,0.2-1.3,0.3-2.2,0.3h-6.5V12H303.3z M303.3,20.8c0.6,0,1.1-0.1,1.5-0.3c0.4-0.2,0.8-0.4,1.1-0.7
		c0.3-0.3,0.5-0.7,0.7-1.1c0.2-0.4,0.2-0.8,0.2-1.3c0-2.5-1.2-3.7-3.5-3.7h-5.1v7.1H303.3z M303.3,30.3c0.6,0,1.1-0.1,1.6-0.2
		c0.5-0.1,0.9-0.3,1.3-0.7c0.4-0.3,0.7-0.7,0.9-1.3c0.2-0.5,0.3-1.2,0.3-2c0-1.3-0.4-2.2-1-2.9c-0.7-0.6-1.7-1-3-1h-5.1v7.9H303.3z"
		/>
	<path class="st2" d="M353.5,12l6.1,19.9H358l-1.9-6.2h-7l-1.9,6.2h-1.6l6.2-19.9H353.5z M355.7,24.1l-3-10.2l-3.1,10.2H355.7z"/>
	<polygon class="st2" points="123.3,80.3 115,80.3 115,63.6 102.5,63.6 102.5,80.3 94.2,80.3 94.2,37.6 102.5,37.6 102.5,53.3 
		115,53.3 115,37.6 123.3,37.6 	"/>
	<path class="st2" d="M160.4,80.3h-8.5l-2.2-8.6h-12l-2.3,8.6h-8.5l12.2-42.7h9.2L160.4,80.3z M147.8,64.2l-4-15.6l-4.1,15.6H147.8z
		"/>
	<path class="st2" d="M188,51c0,1.6-0.2,3.1-0.5,4.6c-0.3,1.5-0.9,2.9-1.7,4.2c-0.8,1.3-1.8,2.4-3.2,3.2c-1.3,0.8-2.9,1.2-4.7,1.2
		h-5.4v16h-8.3V37.6h13.8c1.8,0,3.4,0.4,4.7,1.2c1.3,0.8,2.4,1.9,3.2,3.2c0.8,1.3,1.3,2.7,1.7,4.3C187.8,47.9,188,49.4,188,51
		 M179.5,51.1c0-2-0.4-3.4-1.2-4.2c-0.8-0.7-2.2-1.1-4.2-1.1h-1.7v10.3h1.8c1.4,0,2.4-0.1,3.2-0.4c0.7-0.3,1.3-0.8,1.6-1.5
		C179.3,53.5,179.5,52.4,179.5,51.1"/>
	<path class="st2" d="M216.4,51c0,1.6-0.2,3.1-0.5,4.6c-0.3,1.5-0.9,2.9-1.7,4.2c-0.8,1.3-1.8,2.4-3.2,3.2c-1.3,0.8-2.9,1.2-4.7,1.2
		h-5.4v16h-8.3V37.6h13.8c1.8,0,3.4,0.4,4.7,1.2c1.3,0.8,2.4,1.9,3.2,3.2c0.8,1.3,1.3,2.7,1.7,4.3C216.2,47.9,216.4,49.4,216.4,51
		 M208,51.1c0-2-0.4-3.4-1.2-4.2c-0.8-0.7-2.2-1.1-4.2-1.1h-1.8v10.3h1.8c1.4,0,2.4-0.1,3.2-0.4c0.7-0.3,1.3-0.8,1.6-1.5
		C207.8,53.5,208,52.4,208,51.1"/>
	<path class="st2" d="M250.5,58.9c0,4-0.6,7.6-1.8,11c-1.2,3.3-3,6-5.3,8c-2.3,2-5.2,2.9-8.6,2.9c-3.4,0-6.3-1-8.6-3.1
		c-2.4-2.1-4.1-4.7-5.3-8.1c-1.2-3.3-1.7-6.9-1.7-10.7c0-3.8,0.6-7.4,1.7-10.8c1.1-3.3,2.9-6,5.3-8.1c2.4-2,5.2-3.1,8.6-3.1
		c2.5,0,4.8,0.6,6.8,1.8c2,1.2,3.6,2.7,4.9,4.8c1.3,2,2.3,4.3,2.9,7C250.2,53.2,250.5,56,250.5,58.9 M242.1,58.9
		c0-1.6-0.2-3.1-0.5-4.4c-0.3-1.3-0.8-2.5-1.4-3.5c-0.6-1-1.4-1.7-2.3-2.3c-0.9-0.5-1.9-0.8-3.1-0.8c-2.2,0-4,1-5.3,3
		c-1.3,2-1.9,4.6-1.9,7.9c0,3.3,0.6,5.9,1.9,7.9c1.3,2,3,3,5.2,3c1.5,0,2.8-0.5,3.9-1.4c1.1-0.9,1.9-2.2,2.5-3.9
		C241.8,63,242.1,61,242.1,58.9"/>
	<path class="st2" d="M297.2,58.9c0,4-0.6,7.6-1.8,11c-1.2,3.3-3,6-5.3,8c-2.3,2-5.2,2.9-8.6,2.9c-3.4,0-6.3-1-8.7-3.1
		c-2.4-2.1-4.1-4.7-5.3-8.1c-1.2-3.3-1.7-6.9-1.7-10.7c0-3.8,0.6-7.4,1.7-10.8c1.1-3.3,2.9-6,5.3-8.1c2.4-2,5.2-3.1,8.7-3.1
		c2.5,0,4.8,0.6,6.8,1.8c2,1.2,3.6,2.7,4.9,4.8c1.3,2,2.3,4.3,2.9,7C296.9,53.2,297.2,56,297.2,58.9 M288.8,58.9
		c0-1.6-0.2-3.1-0.5-4.4c-0.3-1.3-0.8-2.5-1.4-3.5c-0.6-1-1.4-1.7-2.3-2.3c-0.9-0.5-1.9-0.8-3.1-0.8c-2.2,0-4,1-5.3,3
		c-1.3,2-1.9,4.6-1.9,7.9c0,3.3,0.6,5.9,1.9,7.9c1.3,2,3,3,5.2,3c1.5,0,2.8-0.5,3.9-1.4c1.1-0.9,1.9-2.2,2.5-3.9
		C288.5,63,288.8,61,288.8,58.9"/>
	<polygon class="st2" points="332.3,80.3 324.9,80.3 310.6,56.5 310.6,80.3 302.4,80.3 302.4,37.6 309.8,37.6 324,61.2 324,37.6 
		332.3,37.6 	"/>
	<polygon class="st2" points="360,80.3 339.2,80.3 339.2,37.6 359.6,37.6 359.6,46.2 347.5,46.2 347.5,54 359.1,54 359.1,62.6 
		347.5,62.6 347.5,71.7 360,71.7 	"/>
	<rect x="253.2" y="52" class="st2" width="10.2" height="14.1"/>
</g>
</svg>
